<?xml version="1.0" encoding="utf-8"?>
<!-- Generator: Adobe Illustrator 17.0.0, SVG Export Plug-In . SVG Version: 6.00 Build 0)  -->
<!DOCTYPE svg PUBLIC "-//W3C//DTD SVG 1.1//EN" "http://www.w3.org/Graphics/SVG/1.1/DTD/svg11.dtd">
<svg version="1.1" id="COMPANY" xmlns="http://www.w3.org/2000/svg" xmlns:xlink="http://www.w3.org/1999/xlink" x="0px" y="0px"
	 width="58.5px" height="47.375px" viewBox="0 0 58.5 47.375" enable-background="new 0 0 58.5 47.375" xml:space="preserve">
<g>
	<g opacity="0.3">
		<path fill="#1E4C4C" d="M3.257,42.222c6.81,0,10.676,0,15.796,0V19.016H3.257V42.222z"/>
	</g>
	<g opacity="0.3">
		<path fill="#1E4C4C" d="M12.018,35.682c3.922,0,6.149,0,9.099,0V12.238h-9.099V35.682z"/>
	</g>
	<g opacity="0.3">
		<path fill="#1E4C4C" d="M43.254,42.238c5.3,0,8.308,0,12.293,0V10.244H43.254V42.238z"/>
	</g>
	<g opacity="0.3">
		<path fill="#1E4C4C" d="M31.577,41.812c6.81,0,10.676,0,15.796,0V16.374H31.577V41.812z"/>
	</g>
	<g>
		<path fill="#CCE4C4" d="M20.009,42.688c8.651,0,13.562,0,20.067,0v-32.52H20.009V42.688z"/>
	</g>
	<g>
		<path fill="#CCE4C4" d="M9.225,42.222c4.69,0,7.353,0,10.88,0V25.361H9.225V42.222z"/>
	</g>
	<g>
		<path fill="#CCE4C4" d="M39.58,42.226c4.69,0,7.353,0,10.88,0V25.361H39.58V42.226z"/>
	</g>
	<g>
		<rect x="21.673" y="14.319" fill="#1E4C4C" width="4.195" height="4.195"/>
	</g>
	<g>
		<rect x="27.752" y="14.319" fill="#FCC020" width="4.195" height="4.195"/>
	</g>
	<g>
		<rect x="21.673" y="20.659" fill="#1E4C4C" width="4.195" height="4.195"/>
	</g>
	<g>
		<rect x="27.752" y="20.659" fill="#1E4C4C" width="4.195" height="4.195"/>
	</g>
	<g>
		<rect x="21.673" y="27" fill="#1E4C4C" width="4.195" height="4.195"/>
	</g>
	<g>
		<rect x="27.752" y="27" fill="#1E4C4C" width="4.195" height="4.195"/>
	</g>
	<g>
		<rect x="12.811" y="27.046" fill="#1E4C4C" width="4.028" height="4.195"/>
	</g>
	<g>
		<rect x="42.954" y="27.046" fill="#1E4C4C" width="4.028" height="4.195"/>
	</g>
	<g>
		<rect x="26.567" y="35.337" fill="#1E4C4C" width="3.128" height="7.39"/>
	</g>
	<g>
		<rect x="30.123" y="35.337" fill="#1E4C4C" width="3.128" height="7.39"/>
	</g>
	<g>
		<rect x="34.038" y="14.319" fill="#1E4C4C" width="4.195" height="4.195"/>
	</g>
	<g>
		<rect x="34.038" y="20.659" fill="#1E4C4C" width="4.195" height="4.195"/>
	</g>
	<g>
		<rect x="34.038" y="27" fill="#1E4C4C" width="4.195" height="4.195"/>
	</g>
	<g>
		<rect x="20.947" y="8.366" fill="#CCE4C4" width="17.621" height="1.353"/>
	</g>
	<g>
		<rect x="22.668" y="7.941" fill="#CCE4C4" width="14.177" height="1.353"/>
	</g>
	<g>
		<polygon fill="#CCE4C4" points="25.233,6.395 29.797,4.99 34.281,6.395 34.281,7.418 25.233,7.418 		"/>
	</g>
	<g>
		<defs>
			<rect id="SVGID_1_" x="27.752" y="14.319" width="4.195" height="4.195"/>
		</defs>
		<clipPath id="SVGID_2_">
			<use xlink:href="#SVGID_1_"  overflow="visible"/>
		</clipPath>
		<g clip-path="url(#SVGID_2_)">
			<path fill="#1E4C4C" d="M31.321,20.178c-0.004,0.001-0.008,0.003-0.012,0.004c0.012,0.145,0.028,0.29,0.035,0.435
				c0.013,0.234,0.021,0.469,0.029,0.703c0.001,0.02-0.01,0.04-0.016,0.059c-0.011,0.035-0.028,0.069-0.032,0.104
				c-0.005,0.041,0.011,0.066,0.062,0.056c0.035-0.007,0.075-0.012,0.11-0.005c0.123,0.023,0.134,0.014,0.143-0.106
				c0.008-0.114,0.008-0.225-0.039-0.333c-0.027-0.061-0.056-0.123-0.073-0.187c-0.024-0.091-0.035-0.187-0.059-0.278
				c-0.033-0.128-0.072-0.254-0.11-0.38C31.349,20.225,31.333,20.202,31.321,20.178z"/>
		</g>
	</g>
	<g>
		<path fill="#1E4C4C" d="M31.553,18.503l-0.037-1.161l-1.061-0.487c0,0-0.173-0.225-0.025-0.449
			c0.148-0.225,0.449-1.286-0.425-1.286c-0.873,0-0.534,1.061-0.387,1.286c0.148,0.225-0.025,0.449-0.025,0.449l-1.061,0.487
			l-0.037,1.161H31.553z"/>
	</g>
	<g>
		<polygon fill="#CCE4C4" points="30.006,16.856 29.706,17.817 29.932,18.112 30.21,17.869 		"/>
	</g>
	<g>
		<rect x="14.227" y="39.387" fill="#1E4C4C" width="0.763" height="3.269"/>
		<circle fill="#9EC10D" cx="14.472" cy="36.483" r="2.89"/>
	</g>
	<rect x="8.833" y="24.094" fill="#CCE4C4" width="11.172" height="0.89"/>
	<rect x="40.086" y="24.094" fill="#CCE4C4" width="11.172" height="0.89"/>
	<rect x="19.454" y="25.341" fill-rule="evenodd" clip-rule="evenodd" fill="#1A7C7B" width="0.556" height="17.51"/>
	<rect x="40.079" y="25.341" fill-rule="evenodd" clip-rule="evenodd" fill="#1A7C7B" width="0.659" height="17.51"/>
	<g>
		<rect x="42.186" y="39.387" fill="#1E4C4C" width="0.763" height="3.269"/>
		<circle fill="#9EC10D" cx="42.43" cy="36.483" r="2.89"/>
	</g>
	<circle fill-rule="evenodd" clip-rule="evenodd" fill="#CCE4C4" cx="29.041" cy="39.291" r="0.259"/>
	<circle fill-rule="evenodd" clip-rule="evenodd" fill="#CCE4C4" cx="30.779" cy="39.291" r="0.259"/>
</g>
</svg>
