<?xml version="1.0" encoding="utf-8"?>
<!-- Generator: Adobe Illustrator 17.0.0, SVG Export Plug-In . SVG Version: 6.00 Build 0)  -->
<!DOCTYPE svg PUBLIC "-//W3C//DTD SVG 1.1//EN" "http://www.w3.org/Graphics/SVG/1.1/DTD/svg11.dtd">
<svg version="1.1" id="BIG_BUSINESS" xmlns="http://www.w3.org/2000/svg" xmlns:xlink="http://www.w3.org/1999/xlink" x="0px"
	 y="0px" width="61px" height="54.375px" viewBox="0 0 61 54.375" enable-background="new 0 0 61 54.375" xml:space="preserve">
<g>
	<g>
		<g>
			<path fill="#FFBD35" d="M45.708,7.711c0,0.161-0.131,0.291-0.292,0.291h-0.008c-0.161,0-0.292-0.13-0.292-0.291V3.827
				c0-0.161,0.131-0.292,0.292-0.292h0.008c0.161,0,0.292,0.131,0.292,0.292V7.711z"/>
			<path fill="#FFBD35" d="M47.745,6.726c0,0.161-0.131,0.292-0.292,0.292h-0.008c-0.161,0-0.292-0.13-0.292-0.292V2.25
				c0-0.161,0.13-0.292,0.292-0.292h0.008c0.161,0,0.292,0.131,0.292,0.292V6.726z"/>
			<path fill="#FFBD35" d="M49.58,7.908c0,0.161-0.13,0.292-0.292,0.292h-0.008c-0.161,0-0.292-0.131-0.292-0.292V3.433
				c0-0.161,0.13-0.292,0.292-0.292h0.008c0.161,0,0.292,0.131,0.292,0.292V7.908z"/>
			<circle fill="#FCC020" cx="47.367" cy="14.858" r="5.965"/>
			<path fill="#FFBD35" d="M52.421,14.858c0-2.795-2.262-5.055-5.055-5.055c-2.79,0-5.055,2.26-5.055,5.055
				c0,2.79,2.265,5.053,5.055,5.053C50.159,19.911,52.421,17.649,52.421,14.858z"/>
			<g>
				<path fill="#FFFFFF" d="M46.746,18.229v-0.822c-0.58-0.026-1.143-0.184-1.472-0.372l0.26-1.014
					c0.363,0.199,0.874,0.381,1.437,0.381c0.492,0,0.831-0.191,0.831-0.536c0-0.329-0.279-0.539-0.918-0.753
					c-0.928-0.311-1.561-0.745-1.561-1.586c0-0.762,0.539-1.358,1.463-1.542v-0.822h0.85v0.762c0.581,0.027,0.971,0.148,1.256,0.288
					l-0.253,0.977c-0.224-0.096-0.622-0.294-1.244-0.294c-0.565,0-0.745,0.241-0.745,0.484c0,0.287,0.302,0.467,1.038,0.745
					c1.029,0.363,1.445,0.838,1.445,1.618c0,0.771-0.545,1.428-1.541,1.603v0.883H46.746z"/>
			</g>
		</g>
		<g>
			<rect x="41.441" y="22.9" fill="#CCE4C4" width="12.089" height="2.301"/>
			<polygon fill="#CCE4C4" points="56.446,25.404 38.095,25.404 38.095,42.549 33.041,42.549 33.041,49.876 56.446,49.876 			"/>
			<rect x="41.596" y="28.759" fill="#1E2438" width="3.782" height="3.781"/>
			<rect x="49.163" y="28.759" fill="#1E2438" width="3.78" height="3.781"/>
			<rect x="41.596" y="35.32" fill="#1E2438" width="3.782" height="3.782"/>
			<rect x="44.681" y="43.989" fill="#1E2438" width="5.142" height="5.626"/>
			<rect x="49.163" y="35.32" fill="#1E2438" width="3.78" height="3.782"/>
			<g>
				<g>
					<path fill="#2ED154" d="M37.998,40.496c0,0-0.881,0.955-1.396,2.226c-0.763,1.888-1.031,4.151,1.278,4.151
						c2.449,0,2.547-1.825,1.659-3.933C39.168,42.059,38.746,41.545,37.998,40.496z"/>
				</g>
				<rect x="37.86" y="46.921" fill="#1E2438" width="0.281" height="2.943"/>
			</g>
			<g>
				<g>
					<path fill="#1A7C7B" d="M56.378,40.496c0,0-0.881,0.955-1.395,2.226c-0.764,1.888-1.031,4.151,1.278,4.151
						c2.449,0,2.547-1.825,1.659-3.933C57.547,42.059,57.126,41.545,56.378,40.496z"/>
				</g>
				<rect x="56.24" y="46.921" fill="#1E2438" width="0.281" height="2.943"/>
			</g>
		</g>
	</g>
	<g>
		<g id="cloud_1_">
			<path fill="#E0E2E2" d="M31.329,17.486c-1.764,0-3.233,1.26-3.558,2.927c-0.064,0.047-0.124,0.095-0.183,0.145
				c-1.24,0.114-2.212,1.156-2.212,2.427v0.12c0,1.347,1.092,2.438,2.439,2.438l3.559-0.023v-8.033
				C31.358,17.487,31.345,17.486,31.329,17.486z"/>
			<path fill="#E8EAEA" d="M34.819,19.91c-0.345-1.401-1.379-2.408-3.445-2.423v8.033l3.268-0.021c1.509,0,2.731-1.223,2.731-2.731
				v-0.134C37.372,21.187,36.244,20.002,34.819,19.91z"/>
		</g>
		<g>
			<circle fill="#45BBC6" cx="19.864" cy="33.436" r="12.082"/>
			<g>
				<path fill="#CCE4C4" d="M12.181,34.244c0,0,0.017,1.098,0.644,1.783c0.894,0.976,0.179,0.414,1.514,1.434
					c0.974,0.744,0.271,1.328,1.246,1.982c0.616,0.413,1.445,1.992,2.054,0.196c0.082-0.239,0.063-1.446,0.043-1.983
					c-0.079,0.282-0.076,0.277-0.016-0.255c0.003-0.028,0.01,0.077,0.016,0.255c0.169-0.604,0.715-2.526,1.875-3.411
					c1.702-1.3,0-2.043,0-2.786c0-0.743-1.219-1.621-3.594-2.414c-1.093-0.365-0.92-2.842,0.594-1.993
					c1.515,0.85,4.465,0.174,2.921-0.85c-1.412-0.936-0.59-2.136,0.016-2.763c-0.228-0.017-0.458-0.026-0.69-0.026
					c-4.927,0-8.922,3.994-8.922,8.921c0,1.32,0.287,2.574,0.802,3.7C11.169,35.994,11.64,35.436,12.181,34.244z"/>
				<path fill="#CCE4C4" d="M24.712,27.788c-1.639,0.82-2.459,1.639-1.844,2.459c0.615,0.819,0.614,1.024,1.434,1.229
					c0.819,0.205,2.253-0.205,3.073,0.41c0.82,0.615,1.435-0.41,0.82,0.615c-0.615,1.025-0.41,0.615-2.049,1.025
					c-1.639,0.41-1.23-1.025-1.639,0.41c-0.41,1.435-1.229,1.024-0.614,2.664c0.614,1.639,2.254,2.868,2.254,2.868l0.178,2.139
					c2.282-1.706,3.758-4.429,3.758-7.497c0-3.134-1.541-5.907-3.906-7.605C25.983,26.869,25.575,27.357,24.712,27.788z"/>
			</g>
		</g>
		<g>
			<path fill="#C8CECE" d="M3.774,23.955L3.116,23.65l0.007-0.014c0.215-0.469,0.499-0.906,0.841-1.303l0.011-0.015l0.553,0.473
				l-0.011,0.015c-0.298,0.346-0.546,0.728-0.735,1.135L3.774,23.955z M5.51,21.903L5.092,21.31l0.015-0.011
				c0.4-0.284,0.848-0.535,1.325-0.75l0.018-0.007l0.295,0.666l-0.015,0.007c-0.44,0.193-0.844,0.422-1.205,0.677L5.51,21.903z
				 M17.217,21.324l-0.018-0.004c-0.149-0.047-0.306-0.098-0.466-0.146c-0.051-0.014-0.106-0.029-0.156-0.044l-0.084-0.025
				l-0.029,0.037v-0.058l0.004-0.004l0.193-0.684l0.015,0.003c0.091,0.025,0.178,0.051,0.266,0.08
				c0.156,0.044,0.32,0.095,0.48,0.146l0.018,0.007L17.217,21.324z M15.11,20.76h-0.018c-0.47-0.102-0.942-0.186-1.408-0.248
				l-0.018-0.004l0.098-0.72l0.019,0.004c0.469,0.062,0.96,0.149,1.459,0.255l0.018,0.004L15.11,20.76z M8.028,20.757l-0.189-0.706
				l0.018-0.004c0.466-0.124,0.961-0.225,1.47-0.295l0.022,0.014l0.098,0.702l-0.018,0.004c-0.488,0.069-0.95,0.16-1.383,0.277
				L8.028,20.757z M12.26,20.375c-0.509-0.029-1.019-0.033-1.419-0.018h-0.022l-0.022-0.728h0.018
				c0.415-0.015,0.965-0.011,1.47,0.018v-0.026l0.036,0.044l-0.04,0.691h-0.018L12.26,20.375z"/>
			<path fill="#DDDDDD" d="M18.015,39.983c-0.817-0.272-4.453-1.645-5.312-2.043c-4.339-2.015-7.823-5.19-9.321-8.492
				c-0.957-2.109-1.046-4.12-0.26-5.813l0.66,0.307c-0.695,1.496-0.604,3.296,0.263,5.206c1.428,3.149,4.78,6.189,8.965,8.133
				c0.843,0.392,4.428,1.744,5.235,2.013L18.015,39.983z"/>
		</g>
		<path fill="#D0D8D7" d="M11.733,23.096c-0.139-0.563-0.554-0.968-1.384-0.974c-0.006,0-0.012,0-0.018,0
			c-0.709,0-1.299,0.506-1.43,1.176c-0.026,0.019-0.05,0.038-0.074,0.059c-0.498,0.046-0.889,0.465-0.889,0.976v0.048
			c0,0.541,0.439,0.98,0.98,0.98l1.43-0.009l1.313-0.008c0.607,0,1.097-0.491,1.097-1.097v-0.054
			C12.759,23.609,12.306,23.133,11.733,23.096z"/>
	</g>
	<g id="handbag">
		<path fill="#1E2438" d="M23.802,31.815h22.614c0.913,0,1.653,0.74,1.653,1.653v13.92c0,0.913-0.74,1.653-1.653,1.653H23.802
			c-0.912,0-1.652-0.74-1.652-1.653v-13.92C22.149,32.555,22.889,31.815,23.802,31.815z"/>
		<g opacity="0.2">
			<ellipse fill="#1E2438" cx="34.221" cy="49.395" rx="14.445" ry="0.443"/>
		</g>
		<path fill="#13192E" d="M35.806,42.827h-0.615c-0.306,0-0.554-0.248-0.554-0.554v-1.445c0-0.306,0.248-0.554,0.554-0.554h0.615
			c0.306,0,0.554,0.248,0.554,0.554v1.445C36.36,42.579,36.112,42.827,35.806,42.827z"/>
		<path opacity="0.3" fill="#3A4050" d="M23.985,49.081h3.65V33.866h-5.485v13.38C22.149,48.259,22.971,49.081,23.985,49.081z"/>
		<path opacity="0.3" fill="#3A4050" d="M46.033,49.081h-3.65V33.866h5.485v13.38C47.868,48.259,47.047,49.081,46.033,49.081z"/>
		<path fill="#3A4050" d="M48.069,33.468l-0.738,5.976c-4.035,2.207-19.383,2.252-23.458,0.12l-1.683-6.095
			c0,0,0.082-1.418,1.396-1.57c0.984,0,22.556,0,22.556,0S47.822,31.757,48.069,33.468z"/>
		<path opacity="0.6" fill="#1E2438" d="M35.478,40.509c-6.678,0-10.214-1.102-10.249-1.113c-0.065-0.021-0.1-0.09-0.08-0.155
			c0.021-0.064,0.089-0.1,0.155-0.08c0.034,0.011,3.539,1.102,10.174,1.102c5.769,0,10.505-1.133,10.552-1.145
			c0.067-0.017,0.132,0.025,0.149,0.091c0.016,0.066-0.025,0.132-0.09,0.149C46.04,39.369,41.278,40.509,35.478,40.509z"/>
		<path fill="#3A4050" d="M36.753,40.303c0-0.373-0.364-0.676-0.813-0.676h-0.903c-0.449,0-0.813,0.303-0.813,0.676v0.742h2.539
			L36.753,40.303z"/>
		<path fill="#FEA511" d="M35.806,42.581h-0.615c-0.306,0-0.554-0.248-0.554-0.554v-1.445c0-0.306,0.248-0.554,0.554-0.554h0.615
			c0.306,0,0.554,0.248,0.554,0.554v1.445C36.36,42.333,36.112,42.581,35.806,42.581z"/>
		<path fill="#FED795" d="M34.764,41.299v0.723h0.008c0.006,0.225,0.189,0.407,0.416,0.407h0.618c0.227,0,0.411-0.181,0.417-0.407
			h0.001v-0.723H34.764z"/>
		<path fill="#1E2438" d="M39.169,31.829H38.86c-0.527,0-0.971-0.379-1.033-0.882l-0.119-0.965
			c-0.045-0.366-0.368-0.642-0.752-0.642h-3.712c-0.384,0-0.707,0.276-0.752,0.642l-0.119,0.965
			c-0.062,0.503-0.506,0.882-1.034,0.882h-0.371v-0.177c0-0.197,0.166-0.356,0.371-0.356l0,0c0.246,0,0.453-0.177,0.482-0.412
			l0.119-0.965c0.078-0.635,0.639-1.113,1.304-1.113h3.712c0.665,0,1.225,0.478,1.304,1.112l0.119,0.965
			c0.029,0.235,0.236,0.411,0.482,0.411l0,0c0.171,0,0.309,0.133,0.309,0.297V31.829z"/>
	</g>
	<ellipse fill="#FEA511" cx="56.304" cy="45.808" rx="0.197" ry="0.098"/>
	<g id="pencil">
		
			<radialGradient id="SVGID_1_" cx="-3207.5073" cy="-584.9006" r="4.4816" gradientTransform="matrix(0 0.6462 -1.0867 0 -608.5601 2122.2512)" gradientUnits="userSpaceOnUse">
			<stop  offset="0" style="stop-color:#F96E1A"/>
			<stop  offset="1" style="stop-color:#EF610E"/>
		</radialGradient>
		<polygon fill="url(#SVGID_1_)" points="32.293,49.96 32.088,49.598 32.293,49.176 32.214,48.934 20.245,48.934 20.245,50.186 
			32.214,50.186 		"/>
		<g>
			<polygon fill="#FF931E" points="32.221,48.935 32.214,48.934 20.245,48.934 20.245,49.179 32.293,49.179 			"/>
			<polygon fill="#FFB31E" points="32.293,49.179 20.245,49.179 20.245,49.56 32.058,49.56 			"/>
			<polygon fill="#FFA31E" points="32.058,49.56 20.245,49.56 20.245,49.951 32.293,49.951 			"/>
			<polygon fill="#FF931E" points="20.245,49.951 20.245,50.186 32.214,50.186 32.221,50.185 32.293,49.951 			"/>
		</g>
		<polygon fill="#F8F0E5" points="34.101,49.761 34.101,49.36 32.393,48.949 32.474,49.176 32.257,49.598 32.471,49.96 
			32.407,50.168 		"/>
		<polygon points="34.938,49.561 34.101,49.36 34.101,49.761 		"/>
		<g opacity="0.2">
			<ellipse fill="#1E2438" cx="27.662" cy="50.36" rx="7.71" ry="0.103"/>
		</g>
	</g>
	<g id="glasses_1_">
		<polygon fill="#916D4D" points="42.43,46.801 55.996,46.688 55.992,46.173 42.426,46.285 42.43,46.801 		"/>
		<path fill="#916D4D" d="M43.97,46.637c0,0-1.317,0.716-1.299,1.22c0.022,0.67,0.327,0.442,0.327,0.442s1.193-1.207,1.622-1.515
			c0.091-0.065-0.287-0.15-0.287-0.15L43.97,46.637L43.97,46.637z"/>
		<path fill="#916D4D" d="M54.571,46.548c0,0,1.328,0.695,1.32,1.198c-0.012,0.67-0.32,0.448-0.32,0.448s-1.212-1.187-1.648-1.487
			c-0.091-0.065,0.285-0.156,0.285-0.156L54.571,46.548L54.571,46.548z"/>
		<g>
			<path fill="#1E2438" d="M56.971,45.577l0.007,0.836c-0.702,0.225-0.733,1.809-0.733,1.809s-0.317,2.18-2.891,2.202
				c-2.992,0.025-3.43-2.765-3.545-3.226c-0.098-0.401-0.459-0.433-0.552-0.435c-0.094,0.004-0.455,0.042-0.547,0.444
				c-0.105,0.462-0.498,3.26-3.489,3.285c-2.473,0.021-2.769-2.169-2.769-2.169s-0.216-1.568-0.922-1.781l-0.007-0.836
				c0,0,0.68-0.333,2.637-0.349c1.958-0.017,3.098,0.26,3.098,0.26s1.444,0.285,1.991,0.288c0.545-0.012,1.985-0.321,1.985-0.321
				s1.136-0.296,3.094-0.312C56.287,45.256,56.971,45.577,56.971,45.577L56.971,45.577z M46.391,45.798c0,0-0.956-0.213-2.382,0.037
				c-1.425,0.25-1.343,1.216-1.219,1.84c0.124,0.624,0.274,2.512,2.668,2.417c0.891-0.067,2.309-0.677,2.735-2.524
				C48.542,46.064,46.391,45.798,46.391,45.798L46.391,45.798z M50.408,47.549c0.457,1.838,1.884,2.427,2.778,2.478
				c2.394,0.055,2.514-1.835,2.626-2.461c0.114-0.626,0.18-1.594-1.249-1.819c-1.431-0.226-2.383,0.002-2.383,0.002
				S50.035,46.053,50.408,47.549L50.408,47.549z"/>
		</g>
		<path fill="#A1A7A7" d="M47.633,46.242l-4.597,0.038c-0.15,0.155-0.234,0.333-0.274,0.519l0.949-0.008
			c0.154-0.096,0.26-0.154,0.26-0.154l0.363-0.003c0,0,0.373,0.084,0.289,0.149l3.493-0.029
			C48.006,46.541,47.831,46.373,47.633,46.242L47.633,46.242z"/>
		<path fill="#A1A7A7" d="M44.333,46.633l-0.363,0.003c0,0-0.106,0.058-0.26,0.154c-0.289,0.179-0.739,0.489-0.938,0.785
			c0.006,0.034,0.013,0.067,0.019,0.098c0.031,0.157,0.064,0.393,0.134,0.658c0.042-0.009,0.073-0.033,0.073-0.033
			s1.193-1.207,1.622-1.515c0-0.001,0.001-0.001,0.002-0.001C44.706,46.717,44.333,46.633,44.333,46.633L44.333,46.633z"/>
		<path fill="#94736A" d="M45.312,45.714c-0.363,0.004-0.804,0.034-1.303,0.121c-1.061,0.186-1.287,0.768-1.282,1.311
			c-0.002-0.115,0.008-0.233,0.034-0.347c0.041-0.186,0.125-0.364,0.274-0.519c0.195-0.201,0.501-0.363,0.973-0.446
			C44.508,45.747,44.949,45.717,45.312,45.714c0.675-0.006,1.079,0.084,1.079,0.084s0.705,0.088,1.242,0.444
			c0.198,0.131,0.373,0.299,0.482,0.512c0.073,0.14,0.116,0.3,0.117,0.483c-0.013-1.213-1.84-1.44-1.84-1.44
			S45.987,45.708,45.312,45.714L45.312,45.714z"/>
		<g>
			<path fill="#EFF0F0" d="M53.922,46.706l-3.449,0.029c-0.07,0.141-0.11,0.302-0.109,0.485c0,0.103,0.014,0.212,0.044,0.329
				c0.457,1.838,1.884,2.427,2.778,2.478l0,0c0.045,0.001,0.091,0.002,0.136,0.001l0,0l0.001,0c1.68-0.015,2.176-1.027,2.366-1.799
				c-0.002,0-0.005,0-0.007,0c-0.06,0-0.11-0.035-0.11-0.035s-1.212-1.187-1.648-1.487C53.923,46.706,53.923,46.706,53.922,46.706
				L53.922,46.706z M55.825,46.689l-0.991,0.009c0.309,0.186,0.802,0.514,0.985,0.822c0.026-0.15,0.047-0.317,0.046-0.488
				C55.865,46.918,55.853,46.803,55.825,46.689L55.825,46.689z M53.257,45.648c-0.001,0-0.001,0-0.001,0
				c-0.671,0.006-1.072,0.102-1.076,0.103l0,0c0,0-0.702,0.099-1.233,0.464l4.597-0.038c-0.197-0.198-0.507-0.354-0.98-0.428l0,0
				c-0.007-0.001-0.013-0.003-0.018-0.003c-0.492-0.077-0.927-0.1-1.285-0.096C53.259,45.648,53.258,45.648,53.257,45.648
				L53.257,45.648z"/>
		</g>
		<path fill="#C5C9C9" d="M55.543,46.176l-4.597,0.038c-0.196,0.135-0.368,0.305-0.473,0.52l3.449-0.029
			c-0.085-0.065,0.286-0.155,0.286-0.155l0.362-0.003c0,0,0.109,0.057,0.264,0.15l0.991-0.009
			C55.781,46.506,55.695,46.328,55.543,46.176L55.543,46.176z"/>
		<path fill="#C5C9C9" d="M54.571,46.548l-0.362,0.003c0,0-0.372,0.09-0.286,0.155c0,0,0.001,0,0.001,0.001
			c0.436,0.3,1.648,1.487,1.648,1.487s0.05,0.035,0.11,0.035c0.003,0,0.005,0,0.007,0c0.066-0.267,0.095-0.505,0.123-0.663
			c0.003-0.015,0.005-0.03,0.008-0.046c-0.183-0.308-0.677-0.636-0.985-0.822C54.679,46.605,54.571,46.548,54.571,46.548
			L54.571,46.548z"/>
		<path fill="#94736A" d="M53.322,50.028l-0.001,0l0,0L53.322,50.028L53.322,50.028z M53.185,50.027
			c0.045,0.001,0.091,0.002,0.136,0.001C53.277,50.028,53.23,50.028,53.185,50.027L53.185,50.027z M54.563,45.748L54.563,45.748
			c0.473,0.074,0.783,0.23,0.98,0.428c0.152,0.152,0.238,0.33,0.283,0.514c0.028,0.113,0.039,0.228,0.04,0.343
			C55.86,46.491,55.623,45.915,54.563,45.748L54.563,45.748L54.563,45.748z M52.179,45.75L52.179,45.75c0,0-1.822,0.257-1.816,1.469
			c-0.001-0.182,0.039-0.344,0.109-0.485c0.105-0.216,0.277-0.386,0.473-0.52C51.478,45.849,52.179,45.75,52.179,45.75L52.179,45.75
			L52.179,45.75z M53.259,45.648c0.358-0.004,0.793,0.019,1.285,0.096C54.053,45.668,53.619,45.645,53.259,45.648L53.259,45.648z
			 M53.257,45.648c-0.001,0-0.001,0-0.001,0S53.256,45.648,53.257,45.648L53.257,45.648L53.257,45.648z"/>
		<path fill="#E2E4E4" d="M50.622,48.181l3.302-1.474l1.765,1.522c0,0-0.379,1.695-2.178,1.773
			C51.713,50.08,51.38,48.934,50.622,48.181z"/>
		<ellipse fill="#FEA511" cx="42.599" cy="45.732" rx="0.197" ry="0.099"/>
		<g>
			<path fill="#C8CBCB" d="M46.391,45.798c0,0-0.404-0.09-1.079-0.084c-0.363,0.004-0.804,0.034-1.303,0.121
				c-0.472,0.083-0.779,0.244-0.973,0.446l4.597-0.038C47.096,45.886,46.391,45.798,46.391,45.798z"/>
			<path fill="#C8CBCB" d="M43.71,46.791l-0.949,0.008c-0.025,0.114-0.035,0.232-0.034,0.347c0.001,0.15,0.02,0.295,0.044,0.43
				C42.971,47.28,43.422,46.97,43.71,46.791z"/>
			<path fill="#EFF0F0" d="M43.219,49.062c0.327,0.556,0.931,1.042,2.104,1.032c0.045,0,0.089,0,0.136-0.003
				c0.584-0.044,1.392-0.324,2.001-1.029H43.219z"/>
			<path fill="#C8CBCB" d="M48.193,47.568c0.027-0.118,0.039-0.228,0.038-0.33c-0.001-0.183-0.044-0.343-0.117-0.483l-3.493,0.029
				c-0.001,0-0.002,0-0.002,0.001c-0.429,0.308-1.622,1.515-1.622,1.515s-0.031,0.024-0.073,0.033
				c0.061,0.233,0.152,0.488,0.294,0.731h4.24C47.78,48.691,48.046,48.204,48.193,47.568z"/>
		</g>
	</g>
</g>
</svg>
